<svg xmlns="http://www.w3.org/2000/svg" viewBox="0 0 400.613 400.613">
  <path d="M277.664 208.01h-16.123c31.146-20.152 51.804-55.194 51.804-94.972C313.345 50.708 262.637 0 200.307 0S87.269 50.708 87.269 113.038c0 39.778 20.656 74.82 51.804 94.972H122.95c-41.434 0-75.143 33.707-75.143 75.141v104.963c0 6.904 5.597 12.5 12.5 12.5h280c6.903 0 12.5-5.596 12.5-12.5V283.15c0-41.433-33.709-75.14-75.143-75.14zm-165.395-94.972c0-48.544 39.493-88.038 88.038-88.038 48.544 0 88.038 39.494 88.038 88.038 0 48.543-39.494 88.036-88.038 88.036-48.545 0-88.038-39.493-88.038-88.036zm124.611 106.96l-36.573 36.574-36.573-36.573c11.477 3.935 23.779 6.075 36.573 6.075s25.097-2.14 36.573-6.076zm90.927 155.615h-34v-60.059c0-6.904-5.597-12.5-12.5-12.5s-12.5 5.596-12.5 12.5v60.059h-137v-60.059c0-6.904-5.597-12.5-12.5-12.5s-12.5 5.596-12.5 12.5v60.059h-34V283.15c0-27.647 22.494-50.141 50.143-50.141h18.439l50.079 50.078c2.441 2.441 5.64 3.661 8.839 3.661s6.396-1.22 8.839-3.661l50.079-50.078h18.439c27.648 0 50.143 22.492 50.143 50.141v92.463z"/>
</svg>