<svg xmlns="http://www.w3.org/2000/svg" width="119.683" height="119.683" xml:space="preserve">
  <circle cx="59.058" cy="18.729" r="18.729"/>
  <path d="M103.871 101.242c-.698-5.748-4.909-7.937-12.004-9.021-4.976 4.548-13.326 8.022-27.24 8.022-1.926 0-3.786-.489-5.454-1.426a11.085 11.085 0 0 1-5.456 1.426c-13.785 0-22.109-3.412-27.1-7.898-6.38 1.253-10.152 3.544-10.806 8.896-.416 3.445.659 6.824 3.029 9.518 6.678 7.592 24.951 8.85 35.247 8.923h.063a8.538 8.538 0 0 0 5.69-2.168 8.536 8.536 0 0 0 5.689 2.168h.063c10.297-.073 28.57-1.331 35.25-8.925 2.373-2.691 3.445-6.069 3.029-9.515z"/>
  <path d="M54.024 97.725a7.245 7.245 0 0 0 5.455-2.476 7.246 7.246 0 0 0 5.454 2.476c20.907 0 27.621-8.242 29.574-15.16 4.568-16.186-13.771-35.102-22.188-40.263-.564-.348-1.166-.578-1.776-.755a21.664 21.664 0 0 0-6.817-3.004l-4.667 4.697-4.526-4.749c-.014.004-.029.005-.045.01a21.37 21.37 0 0 0-8.541 4.242c-8.681 5.72-25.944 24.063-21.498 39.822 1.953 6.917 8.668 15.16 29.575 15.16zM39.889 71.49v6.197c.489.223 1.511.877 1.519.948.854.621 4.245 1.954 11.81 1.954 1.928 0 3.788.488 5.456 1.425a11.082 11.082 0 0 1 5.454-1.425c6.296 0 9.693-.922 11.153-1.591a39.719 39.719 0 0 0 2.947-.73v-8.436c1.878 3.455 2.876 6.679 2.281 8.782-.793 2.815-6.763 4.565-15.577 4.565-2.174 0-4.12.96-5.454 2.476a7.241 7.241 0 0 0-5.455-2.476c-8.813 0-14.784-1.75-15.577-4.565-.496-1.76.124-4.31 1.443-7.124z"/>
</svg>
